<?xml version="1.0" encoding="UTF-8" standalone="no"?>
<!-- Created with Inkscape (http://www.inkscape.org/) -->

<svg
   width="1000"
   height="393.73801"
   viewBox="0 0 1000 393.73801"
   version="1.1"
   id="svg1"
   xml:space="preserve"
   inkscape:version="1.4.2 (ebf0e940d0, 2025-05-08)"
   sodipodi:docname="icon.svg"
   inkscape:export-filename="icon.png"
   inkscape:export-xdpi="96"
   inkscape:export-ydpi="96"
   xmlns:inkscape="http://www.inkscape.org/namespaces/inkscape"
   xmlns:sodipodi="http://sodipodi.sourceforge.net/DTD/sodipodi-0.dtd"
   xmlns="http://www.w3.org/2000/svg"
   xmlns:svg="http://www.w3.org/2000/svg"
   xmlns:rdf="http://www.w3.org/1999/02/22-rdf-syntax-ns#"
   xmlns:cc="http://creativecommons.org/ns#"
   xmlns:dc="http://purl.org/dc/elements/1.1/"><title
     id="title2">Center for Metropolitan Studies</title><sodipodi:namedview
     id="namedview1"
     pagecolor="#ffffff"
     bordercolor="#000000"
     borderopacity="0.25"
     inkscape:showpageshadow="2"
     inkscape:pageopacity="0.0"
     inkscape:pagecheckerboard="0"
     inkscape:deskcolor="#d1d1d1"
     inkscape:document-units="px"
     inkscape:zoom="0.70710678"
     inkscape:cx="497.09607"
     inkscape:cy="258.09398"
     inkscape:window-width="1920"
     inkscape:window-height="1011"
     inkscape:window-x="0"
     inkscape:window-y="0"
     inkscape:window-maximized="1"
     inkscape:current-layer="layer13"
     showguides="false"
     showgrid="true"
     guidecolor="#ff00ff"
     guideopacity="1"><sodipodi:guide
       position="5.4375,342.23505"
       orientation="0,1"
       id="guide28"
       inkscape:locked="false"
       inkscape:label=""
       inkscape:color="rgb(0,134,229)" /><sodipodi:guide
       position="2,344.73505"
       orientation="0,-1"
       id="guide29"
       inkscape:locked="false" /><inkscape:grid
       id="grid102"
       units="px"
       originx="0"
       originy="0"
       spacingx="0.25"
       spacingy="0.25"
       empcolor="#0099e5"
       empopacity="0.30196078"
       color="#0099e5"
       opacity="0.14901961"
       empspacing="5"
       enabled="true"
       visible="false" /><sodipodi:guide
       position="-0.25,342.23505"
       orientation="0,-1"
       id="guide1"
       inkscape:locked="false" /></sodipodi:namedview><defs
     id="defs1"><clipPath
       clipPathUnits="userSpaceOnUse"
       id="clipPath13"><rect
         style="fill:#141414;fill-opacity:1;stroke-width:25.0421;stroke-linecap:round;stroke-linejoin:round;stroke-miterlimit:3;stroke-dasharray:25.0421, 18.7815"
         id="rect14"
         width="1000"
         height="556.64484"
         x="0"
         y="0" /></clipPath></defs><g
     inkscape:groupmode="layer"
     id="layer13"
     inkscape:label="Graphics"
     style="display:inline"
     sodipodi:insensitive="true"><path
       id="rect302-7"
       style="display:inline;mix-blend-mode:normal;fill:#141414;fill-opacity:1;stroke-width:4.47657;stroke-linecap:round;stroke-linejoin:round;stroke-miterlimit:3;stroke-dasharray:4.47657, 3.35737"
       inkscape:label="Black Squares"
       d="m 616.14604,0 v 30.20701 h 30.20702 V 0 Z M 475.24966,17.207019 V 27.49998 h -10.49999 v 23.749984 h -8.74999 v 25.593731 18.156237 h 18.15623 V 76.843695 h 7.4375 V 56.999959 h 12.65624 V 46.706998 h 28.99998 V 17.207019 H 504.74964 Z M 348.56225,26.499981 V 55.99996 h -8.18749 V 45.999967 H 301.74979 V 35.912083 H 282.4998 252.99787 v 29.499979 h 29.50193 8.49999 v 29.96287 7.933588 h -19.24998 v 39.74997 h 39.74997 V 128.1835 h 27.24998 V 95.374932 h 1.625 8.68749 v 27.749978 h 28.93748 V 94.187433 69.187451 h 13.24999 26.89842 v -42.68747 h -26.89842 z m 294.52909,30.896462 v 35.156225 h 4.1582 v 32.812472 h -19.99999 v 30.13475 h 30.13475 4.31835 v 24.75584 h -6.0332 v 30.13279 h 30.13475 v -24.75388 h 6.0332 14.4121 v -30.13475 h -14.4121 -6.08789 v -27.99998 h 21.64843 V 76.601508 h -9.25 -19.89842 v -8.556634 h 10.39257 V 57.396443 h -10.39257 z m 81.90814,10.904289 v 32.499978 h 32.49998 V 68.300732 Z M 474.54654,95.02337 v 8.39844 h -26.45311 v 28.4531 h 28.45311 v -7.64844 h 27.2031 v -29.2031 z m 57.45308,0.375 v 29.60154 h 29.60154 V 95.39837 Z m 37.64841,38.27145 v 21.70702 h 20.80858 v 28.03514 h 28.29295 v -28.29295 h -27.39451 v -21.44921 z m 20.80858,49.74216 h -7.95702 -21.70702 v 21.70701 h 21.70702 7.95702 z M 348.45678,141.91396 v 30.58592 h 30.58592 v -30.58592 z m 152.99208,7.08593 v 31.99998 3.75 h 31.99998 v -31.99998 -3.75 z m -209.57798,3.68555 v 19.62889 0.55664 h -4.38085 v 13.75781 12.12108 h 13.75976 v -13.75976 -1.61132 h 10.24999 v -19.6289 -11.06444 z m 423.12861,2.31445 v 31.24998 h 31.24998 v -31.24998 z m -288.30643,18.49999 v 29.08592 h -25.15038 v 29.41404 h 23.38475 v 9.33593 h 32.58396 v -18.98632 h 15.23827 v 39.15036 h 55.99996 v -18.99998 h 21.74999 v -31.24998 h -21.74999 v -5.75 h -53.20699 v -31.99997 z m -195.16002,17.74998 v 29.49998 h 29.49997 15.21679 v -29.49998 h -15.21679 z m 78.21674,10.93164 v 9.56835 h 9.56835 9.21484 0.4668 v 26.24998 2 h -9 -19.49998 v -9.99999 H 277.1248 260.99981 221.74984 v 39.24997 h 39.24997 16.12499 23.37499 v -1.25 h 19.49998 18.24999 v -26.74998 h 19.49999 v -28.74998 -3.25 h -18.99999 v -7.06835 h -2.7168 -7.49999 -9.21484 z m -147.03115,7.06835 v 31.99998 h 31.99998 v -31.99998 z m 115.09172,64.9687 v 27.99999 h 27.99998 v -27.99999 z m 33.68943,3.53125 v 27.99998 h 27.99998 V 277.7498 Z m 64.74995,20.74999 v 27.99998 h 27.99998 v -27.99998 z m 232.99984,12.77929 v 47.29294 h 47.29293 v -47.29294 z m -78.16401,8.30663 v 29.41404 h 29.41404 v -29.41404 z m -88.08588,2.41406 v 27.99998 h 27.99999 v -27.99998 z m -172.74987,6.5 v 27.99998 h 27.99998 v -27.99998 z" /><path
       id="rect100-9"
       style="display:inline;mix-blend-mode:normal;fill:#868485;fill-opacity:1;stroke-width:3.98692;stroke-linecap:round;stroke-linejoin:round;stroke-miterlimit:3;stroke-dasharray:3.98692, 2.99016"
       inkscape:label="Gray Squares"
       d="M 265.49981,24.499983 V 50.499964 74.249947 98.74993 h 25.99998 23.99999 14.24999 V 72.749948 H 315.49978 291.49979 V 48.249966 24.499983 Z m 354.79272,1.749998 v 19.042956 h -9.04296 v 36.914036 6.894526 4.648434 h -20.20702 v 46.326137 h 46.32614 V 121.24991 H 648.1636 V 84.335878 54.706992 h 0.58594 V 26.249981 Z m -183.04284,6.499996 v 28.999979 11.499992 h 28.99998 V 44.249969 32.749977 Z m 85.99994,0.999999 v 29.499979 h 29.49998 V 33.749976 Z M 369.74974,53.499962 v 18.999986 8.749994 h 18.99998 V 62.249956 53.499962 Z m 173.70104,29.904276 v 18.095692 9.74999 h 18.09765 V 93.154231 83.404238 Z m -105.48234,9.345696 v 28.031226 h 28.03123 V 92.749934 Z m 28.03123,28.031226 v 26.49999 15.96873 17.99999 h 18.49999 v 25.48631 h 27.48631 V 179.24987 H 492.49965 V 154.74989 136.7499 120.78116 Z m -250.99982,-9.28124 v 25.49998 h 25.49998 18.74999 23.49998 23.74998 22.24999 V 111.49992 H 306.49978 282.7498 259.24982 240.49983 Z m 154.49989,9.74999 v 37.49998 h 32.99997 v 18.74998 h 15.12499 v 29.87498 20.12499 h 33.62498 13.99999 v -47.49997 h -13.99999 v -6.24999 -23.62499 H 429.87469 406.99971 V 121.24991 Z M 156.49989,138.9999 v 28.49998 h 28.49998 V 138.9999 Z m 357.23802,2.25 v 28.74998 h 28.74998 V 141.2499 Z m 86.85541,10.7246 v 27.52537 h 27.52537 V 151.9745 Z m 48.81052,0.22656 v 26.54881 21.24999 13.49999 h 16.61913 v 16.72655 h -46.91013 v 29.77342 h -20.36327 v 55.49996 h 38.99998 v 1.62499 6.875 h 57.74996 v -57.74996 -6.87499 H 674.99952 V 230.2264 h 20.29882 v -29.27537 h -19.34765 v -13.99999 -13.49999 -21.24999 z m -416.15401,8.54883 v 26.74998 h 26.74999 2.49999 v 8.37499 h 10.125 v 29.37498 h 29.37498 v -29.37498 h -12 v -27.49998 h -27.49998 v -7.62499 h -2.49999 z m 69.24995,8.24999 v 7.49999 h 7.5 7.49999 7.5 3.75 v -7.49999 h -3.75 -7.5 -7.49999 z m 230.24984,9.87499 v 17.06249 h 17.06249 v -17.06249 z m 173.49988,18.98827 v 28.3867 h 28.3867 v -28.3867 z m -126.121,0.88672 v 31.31248 h -1.37891 -26.87498 v 26.87498 h 26.87498 12.18749 v -26.87498 h 20.5039 v -31.31248 z m -28.25389,58.18746 h -27.74998 v 27.74998 h 27.74998 z M 339.54468,209.24985 v 27.49998 h 27.49998 v -27.49998 z m 154.70497,2.5 v 16.49999 h 16.49999 10.74999 v -16.49999 h -10.74999 z m -10.47069,16.52929 v 28.72068 h 28.72068 v -28.72068 z m -47.92185,11.22069 v 27.99998 h 19.62109 v 26.99998 h 37.44137 v -37.44138 h -29.06248 v -17.55858 z m -144.25185,5.76953 v 8.89452 3.38867 h -8.85546 v -8.21679 h -29.16404 v 29.16404 h 29.16404 v 12.24999 h -0.75 v 0.75 h -12.49999 v 45.99997 h 45.99997 13.24999 v -12.74999 h 10.49999 v 26.49998 h 29.74998 23.49998 19.87499 v -29.74998 h -19.87499 -23.49998 -1.5 V 284.7498 266.74981 h -27.99998 v 17.99999 h -10.74999 v -27.19725 h -28.24998 v -5.19726 -7.08593 z m 423.39423,42.6738 v 28.74997 h 28.74998 v -28.74997 z m -163.74988,28.30662 v 26.49998 h 26.49998 v -26.49998 z m -95.12493,0.21288 v 45.78708 h 45.78707 9.33789 v -45.78708 h -9.33789 z m 153.12489,38.53709 v 27.24998 h 27.24998 v -27.24998 z" /><rect
       style="display:inline;fill:#141414;fill-opacity:1;stroke:none;stroke-width:29.9575;stroke-linecap:square;stroke-linejoin:miter;stroke-miterlimit:3;stroke-dasharray:none;stroke-dashoffset:0"
       id="rect29"
       width="999.99927"
       height="2.4999983"
       x="0"
       y="209.24985"
       inkscape:label="Line" /><path
       id="rect1-5-6"
       style="display:inline;mix-blend-mode:normal;fill:#014691;fill-opacity:1;stroke-width:3.91694;stroke-linecap:round;stroke-linejoin:round;stroke-miterlimit:3;stroke-dasharray:3.91694, 2.93771"
       inkscape:label="Blue Squares"
       d="m 383.74973,15.499989 v 27.49998 26.999981 24.999982 h 28.74998 11.24999 25.70701 V 66.249953 H 423.7497 417.92158 V 46.773405 h -6.67187 V 42.49997 15.499989 Z m 356.12474,3.187498 v 19.687486 h -9.87499 v 38.749972 10.374993 h -9.99999 v 37.999972 9.24999 10.25 28.74998 h 28.74998 1.125 V 144.9999 h -1.125 -18.49999 v -10.25 h 27.74998 v -18.99998 h 10.74999 V 76.999945 41.81247 h 0.0625 V 18.687487 h -8.68749 z M 555.9996,25.874982 V 56.12496 67.874952 h 5.625 v 8.499994 17.187487 14.562487 h -9.12499 v 24.62499 h -16.24999 v 33.24997 h -1.75 -7 v 7 h 7 1.75 v 19.99998 17.37499 h -4.25 v 27.87498 h -28.49998 v 29.49998 h 29.49998 8.99999 0.5 v -27.87498 h 18.99999 v -18.37499 h 4 v -20.49998 h 14.74999 v -1.25 h 4.49999 v -27.24998 h -4.49999 v -10.5 h -5.5 v -7.99999 h 9.74999 v 9.74999 h 29.24998 V 134.4999 H 601.24957 V 108.12492 89.999936 53.937462 36.749974 H 586.24958 V 25.874982 Z M 503.49964,267.74981 H 480.74966 462.49967 V 249.49982 H 440.49969 421.2497 v -7.66405 -11.39843 h -3.22656 v -19.93749 -20.97654 h -7.52343 v -5.9336 -28.24998 h -31.74998 -20.81248 v -13.02733 -8.81249 h 5.56249 v 8.49999 h 38.49997 2.75 v -8.49999 h 12.06249 v 29.99997 h 37.24998 10.18749 v 17.74999 h 21.24998 0.75 v -21.24998 h -0.75 -17.99998 v -33.74998 h -13.43749 -3.8125 v -22.74998 h -25.24998 -20.24999 -2.75 -36.99997 -29.99998 v 19.99998 h -8.49999 v 18.81249 h -7.6875 v 26.99998 h 26.99998 7.36719 v 11.59765 h 5.28515 v 8.58984 h 8.58007 v 37.54489 11.18163 h 4.87305 v 29.87498 h 14.24999 v 8.8164 h 14.83201 v 12.08202 h 14.92382 v 5.74414 h -24.00584 v 12.63085 h -8.23046 -17.62499 v 17.62499 h 17.62499 8.81249 11.92382 v 16.36913 9.99999 h 0.64062 v 12.59765 h 10.38671 v 9.00975 h 27.99998 20.24999 v -27.99998 h -27.3867 v -10.50975 h -1.75 -10.02147 v -3.2168 -4.50585 h 30.62498 3.99999 v 10.75585 h 20.75585 15.07616 11.86327 v 13.83788 4.9375 h 25.49998 v -25.49999 -4.93749 h -5.86327 v -9.375 h -21.0371 v 0.0371 h -10.46288 -7.58203 v -19.74998 h 16.08202 z M 647.14602,26.249981 v 26.603497 6.14648 h 26.6035 v -26.603497 -6.14648 z m -432.64617,7.749995 v 29.499979 18.999986 28.999979 h 29.49998 v -0.0606 h 24.65623 13.56249 V 84.314393 H 268.65606 243.99983 V 81.999942 52.999962 33.999976 Z m 259.87481,11.874991 v 30.624979 h 30.62498 7.625 v 10.062492 h 12.06249 10.56249 8.78124 V 74.499947 h -8.78124 -10.56249 -6.4375 v -28.62498 h -13.24999 z m 208.82993,11.521476 v 10.648431 h 10.64844 9.24999 7.64647 V 57.396443 h -7.64647 -9.24999 z m -362.45482,7.103511 v 28.99998 h 28.99998 V 64.499954 Z M 661.24953,75.83393 v 30.41599 h 30.416 V 75.83393 Z M 494.49965,94.374933 v 28.749977 16.62499 11.99999 h 9.74999 v 9.5 h 24.99998 V 145.4999 h 3.5 v -12.74999 h -3.5 v -15.74999 -11.99999 h -5.99999 V 94.374933 Z m 178.49987,22.624987 v 27.49998 h 27.49998 v -27.49998 z m -507.03089,4.81444 v 28.74998 h 28.74998 0.53125 v 9.93555 h 28.74998 v -0.125 h 9.24999 v -9.81055 h 18.21874 20.28124 v 27.49998 h 27.99998 v -15.81249 h 5.90624 v -28.74997 -0.002 -11.68555 h -25.56248 -28.62498 -27.99998 -28.74998 z m 466.65592,13.93554 v 28.87498 h 28.87498 V 135.7499 Z m 135.03896,8.72461 v 28.99998 7.80663 22.19335 h 19.71484 v 19.22068 h -18.8457 -29.74998 v 29.74998 h -19.46091 v 28.74998 17.60156 h 17.52342 v 11.77342 h 20.47264 v 8.71484 h 30.74998 6.87499 v -9.74999 h -6.87499 v -10.77343 h 27.31053 v -29.74998 -14.0664 H 786.8178 v -2.5 h 8.71483 v -28.99998 h 21.8457 v -29.99998 h -20.71484 v -18.97068 -22.19335 -7.80663 z m -583.53864,24.27537 v 29.74998 h 29.49998 v 13.18749 h 8.15233 v 28.06248 h 30.49998 v -30.49998 h -9.77733 v -23.06248 h -6.875 v -6.875 h -18.99998 -2.75 v -10.56249 z m 489.62465,3.9668 v 18.74998 h 18.74999 6.78124 v 29.4199 h 0.12695 v 0.17773 h -1.6582 -16.68553 -12.31445 v -2.68554 -9.1289 h -12.87108 v 12.87108 9.12891 h 5 v 9.99999 h 6.45507 v 10.23046 h 30.41599 2.5 v -10.73046 h 10.49999 v -17.56444 h 18.09179 v -29.43553 h -0.125 v -2.29883 h -29.43553 v -18.73435 h -6.78124 z m -50.68746,0.7832 v 5.99999 h -23.8203 v 28.25779 8.24219 h 3.3789 v 14.24999 7.99999 H 585.0113 v 8.74999 h -6.45507 v 6.75 h -4.68164 -5.8203 -6.05469 -7.74999 v 7.74999 h 7.74999 6.05469 0.82031 v 6.17578 h -17.81835 v 40.49997 h 12.68749 v 29.18748 h 8.74999 v 11.12499 h 10.375 v 8.0625 h 26.99998 21.74998 V 329.55055 H 618.4312 v -32.68748 h -14.18749 -5.4375 v -29.18748 -7.67577 h 7.95508 12.33593 v -16.47655 -13.27343 h 12.03124 v -0.0234 h 18.27538 v -18.47659 h -6.14649 v -19.6289 h -15.7578 v -4.37889 -3.99219 h 5.8125 v -10.24999 z m -139.40615,15.56249 v 11.81249 h -20.28124 v 8.37499 h -18.12499 v 28.24998 2 h 27.49998 v -2 h 0.75 v -5.87499 h 15.24999 v -22.37499 h 15.09374 17.40624 11.34374 v -20.18748 h -11.34374 -17.40624 z m 342.60912,4.17772 v 24.24999 6.00976 h 24.24999 v -24.24998 -6.00977 z m -534.65977,28.07225 v 27.99998 h 27.99998 v -27.99998 z m -49.24996,28.02342 v 20.99999 5.74999 h -8.625 v -20.05662 h -30.49997 v 30.49998 h 29.49997 v 19.80662 h 28.28123 v 8.2207 h -8.40038 -30.24998 v 10.06249 h -28.49998 v 28.99998 h 28.99998 17.24999 v -8.8125 h 12.49999 17.56054 3.06445 5.24218 6.52148 5.38671 v 20.97069 h 31.99998 31.99998 4 V 333.7771 h -4 -31.99998 -31.99998 v 2.72266 h -5.38671 -6.52148 -5.24218 v -9.45507 h 10.51366 v -20.70897 h 28.06248 V 276.08574 H 281.5623 263.35528 v -5.74999 -20.99999 z m 505.71644,3.10937 h 8.99608 v 9.37499 h -8.99608 z m 87.27728,28.77147 v 14.24999 14.24999 0.75 h 14.24999 v -14.24999 -0.75 -14.24999 z m -170.32019,23.78318 v 23.72069 h 7.17967 v 8.68749 1.375 h 27.49998 v -27.49998 -1.375 h -4.49999 v -4.9082 h -6.45898 z m 63.48627,43.68552 v 27.99998 h 27.99998 V 348.6853 Z M 559.43124,365.73802 V 393.738 h 27.99998 v -27.99998 z" /></g><metadata
     id="metadata2"><rdf:RDF><cc:Work
         rdf:about=""><cc:license
           rdf:resource="http://creativecommons.org/licenses/by-nc-sa/4.0/" /><dc:title>Center for Metropolitan Studies</dc:title></cc:Work><cc:License
         rdf:about="http://creativecommons.org/licenses/by-nc-sa/4.0/"><cc:permits
           rdf:resource="http://creativecommons.org/ns#Reproduction" /><cc:permits
           rdf:resource="http://creativecommons.org/ns#Distribution" /><cc:requires
           rdf:resource="http://creativecommons.org/ns#Notice" /><cc:requires
           rdf:resource="http://creativecommons.org/ns#Attribution" /><cc:prohibits
           rdf:resource="http://creativecommons.org/ns#CommercialUse" /><cc:permits
           rdf:resource="http://creativecommons.org/ns#DerivativeWorks" /><cc:requires
           rdf:resource="http://creativecommons.org/ns#ShareAlike" /></cc:License></rdf:RDF></metadata></svg>
