<?xml version="1.0" encoding="UTF-8" standalone="no"?>
<svg
   viewBox="0 0 999.99996 220.22"
   version="1.1"
   id="svg5"
   sodipodi:docname="logo.svg"
   inkscape:version="1.4.2 (ebf0e940d0, 2025-05-08)"
   width="1000"
   height="220.22"
   inkscape:export-filename="logo.png"
   inkscape:export-xdpi="96"
   inkscape:export-ydpi="96"
   xmlns:inkscape="http://www.inkscape.org/namespaces/inkscape"
   xmlns:sodipodi="http://sodipodi.sourceforge.net/DTD/sodipodi-0.dtd"
   xmlns="http://www.w3.org/2000/svg"
   xmlns:svg="http://www.w3.org/2000/svg"
   xmlns:rdf="http://www.w3.org/1999/02/22-rdf-syntax-ns#"
   xmlns:cc="http://creativecommons.org/ns#"
   xmlns:dc="http://purl.org/dc/elements/1.1/">
  <defs
     id="defs5" />
  <sodipodi:namedview
     id="namedview5"
     pagecolor="#ffffff"
     bordercolor="#000000"
     borderopacity="0.25"
     inkscape:showpageshadow="2"
     inkscape:pageopacity="0.0"
     inkscape:pagecheckerboard="0"
     inkscape:deskcolor="#d1d1d1"
     inkscape:zoom="0.45692425"
     inkscape:cx="45.959478"
     inkscape:cy="14.225553"
     inkscape:window-width="1920"
     inkscape:window-height="1011"
     inkscape:window-x="0"
     inkscape:window-y="0"
     inkscape:window-maximized="1"
     inkscape:current-layer="g5" />
  <title
     id="title1">Ativo 1logo fapesp em preto</title>
  <g
     id="g5"
     inkscape:label="Logo"
     sodipodi:insensitive="true">
    <path
       d="M 991.4793,77.955426 C 982.85818,69.34204 966.40806,65.031463 942.9135,65.031463 h -55.23753 l -30.95072,105.768357 -13.70839,46.22027 h 52.09197 l 14.89673,-50.53084 h 10.57835 c 4.66014,0 9.39787,-0.38834 14.09676,-0.77668 13.32786,-1.95724 25.07126,-5.87172 35.25355,-12.52786 13.70839,-8.62893 22.72565,-20.3801 27.03625,-35.6574 5.43673,-17.622888 3.51833,-30.942961 -5.49117,-39.564117 m -43.09024,36.434087 c -1.96499,5.87947 -4.66006,9.79395 -9.39779,12.53562 a 14.811299,14.811299 0 0 1 -4.3106,1.95724 c -3.88339,1.55335 -8.62112,2.33004 -14.50059,2.33004 l 9.8017,-33.684631 h 4.66005 c 5.48341,0.388339 9.79393,1.553358 12.13954,4.310571 2.74942,2.73392 3.10672,7.0445 1.5534,12.52786"
       id="path3"
       style="fill:#05376c;fill-opacity:1;stroke-width:0.77668"
       inkscape:label="P" />
    <path
       d="m 847.35853,147.69358 c -2.74951,-6.66392 -10.57844,-14.89674 -23.10625,-25.07902 0,-0.38834 -0.40391,-0.38834 -1.18834,-1.17279 -7.0445,-5.48337 -10.17453,-10.18228 -9.00173,-14.10452 a 11.339536,11.339536 0 0 1 5.47556,-6.65615 20.768439,20.768439 0 0 1 10.19006,-2.741685 c 4.70666,0 9.0095,1.18056 14.10453,3.106715 a 89.256128,89.256128 0 0 1 12.92396,7.43285 3.8834028,3.8834028 0 0 0 1.965,1.55336 l 11.34732,-39.175773 a 94.063781,94.063781 0 0 0 -13.31232,-5.095024 c -2.33007,-0.38834 -4.3106,-1.165021 -6.26784,-1.553361 A 86.84065,86.84065 0 0 0 830.51226,61.87814 c -16.84619,0 -31.73514,4.310577 -44.66688,12.543392 -13.33559,8.23281 -21.59171,18.818965 -25.47511,31.742928 -1.95724,7.44061 -1.95724,14.49286 0.39611,20.76068 2.74168,6.66392 10.19004,15.67341 22.33735,27.41681 a 0.38057347,0.38057347 0 0 0 0.38052,0.39611 c 6.66398,7.05227 9.80177,12.14729 8.61343,15.66566 a 12.15505,12.15505 0 0 1 -6.26783,7.84447 20.077193,20.077193 0 0 1 -10.95895,3.10672 c -4.66008,0 -9.79395,-1.55336 -15.27731,-3.8834 a 96.704498,96.704498 0 0 1 -12.14728,-7.06003 24.667375,24.667375 0 0 1 -5.09504,-3.8834 l -12.52784,41.94075 a 88.89109,88.89109 0 0 0 17.62288,8.22505 c 0.38834,0.38834 1.18055,0.38834 1.55336,0.77668 a 91.423071,91.423071 0 0 0 20.76067,2.74944 c 19.19955,0 35.65736,-4.71444 49.75413,-13.71617 14.09676,-9.00172 23.51016,-20.76844 27.82076,-35.64964 2.74166,-9.0095 2.32998,-16.45786 0,-23.10625"
       id="path4"
       style="fill:#05376c;fill-opacity:1;stroke-width:0.77668"
       inkscape:label="S" />
    <polygon
       points="865.5,83.73 823.13,227.48 808.5,279.42 927.03,279.42 942.16,228.99 890.22,228.99 898.28,201.76 944.68,201.76 958.31,156.36 911.39,156.36 918.96,131.15 970.41,131.15 984.52,83.73 "
       id="polygon4"
       style="fill:#05376c;fill-opacity:1"
       transform="scale(0.77668056)"
       inkscape:label="E" />
    <path
       d="m 639.30907,136.33074 a 59.454898,59.454898 0 0 0 9.0095,-18.8112 c 5.48335,-17.622885 3.52613,-30.942959 -5.4756,-39.564114 -0.77669,-1.172786 -1.97278,-1.949466 -3.5339,-3.106721 -8.62116,-6.267811 -23.8907,-9.793941 -44.65913,-9.793941 H 539.42018 L 494.74552,216.63174 v 0.38835 h 52.11526 l 14.88897,-50.53084 h 10.57839 c 4.69892,0 9.39783,-0.38834 14.10452,-0.77668 13.3123,-1.95724 25.06348,-5.87172 35.25353,-12.52786 a 60.464581,60.464581 0 0 0 17.62288,-16.84621 m -39.168,-21.94898 a 19.486915,19.486915 0 0 1 -9.39784,12.53562 14.9045,14.9045 0 0 1 -4.31057,1.95724 c -3.8834,1.55335 -8.62116,2.33003 -14.50063,2.33003 l 9.80171,-33.661334 h 4.70668 c 5.4756,0.388339 9.78618,1.553364 12.13952,4.310574 2.74168,2.73393 3.10672,7.0445 1.55336,12.52787"
       id="path2"
       style="fill:#05376c;fill-opacity:1;stroke-width:0.77668"
       inkscape:label="P" />
    <path
       d="M 494.74552,65.031463 H 436.3935 l -58.75588,104.595567 -26.64014,47.37752 h 50.54637 l 10.57839,-22.3218 h 30.95072 l -2.74168,22.3218 h 50.53084 l 3.8834,-149.246938 z M 446.97967,164.1359 h -20.76845 l 13.32007,-28.2168 13.31231,-28.20127 z"
       id="path5"
       style="fill:#05376c;fill-opacity:1;stroke-width:0.77668"
       inkscape:label="A" />
    <polygon
       points="491.77,159.38 446.38,159.38 454.44,131.15 506.38,131.15 520.52,83.73 402.92,83.73 415.11,40.86 238.07,40.86 401.14,84.88 357.6,234.54 177.04,234.54 344.49,279.42 411.07,279.42 432.76,205.78 478.15,205.78 486.22,179.05 "
       id="polygon2"
       style="fill:#05376c;fill-opacity:1"
       transform="scale(0.77668056)"
       inkscape:label="F" />
    <path
       d="M 161.39422,106.5528 C 168.84258,81.489324 176.29096,56.418076 184.11989,31.346828 166.48925,12.931732 147.29747,0 124.19123,0 100.6811,0 74.040958,12.931732 45.047473,31.346828 Q 33.886573,68.9537 22.725674,106.5528 C 14.896733,131.62406 7.4483666,156.70307 0,182.15489 c 28.597379,-18.01123 55.237521,-30.1585 78.3593,-30.1585 23.49458,0 42.71743,12.14727 60.32478,30.1585 7.43284,-25.45182 15.26178,-50.53083 22.71014,-75.60209"
       id="path1"
       style="fill:#05376c;fill-opacity:1;stroke-width:0.77668"
       inkscape:label="Book" />
  </g>
  <metadata
     id="metadata5">
    <rdf:RDF>
      <cc:Work
         rdf:about="">
        <dc:title>Ativo 1logo fapesp em preto</dc:title>
      </cc:Work>
    </rdf:RDF>
  </metadata>
</svg>
